<mxfile host="app.diagrams.net" agent="Mozilla/5.0 (Windows NT 10.0; Win64; x64; rv:130.0) Gecko/20100101 Firefox/130.0" version="24.7.17">
  <diagram name="Page-1" id="FCqSfHGJfxYq4ZlZrNH6">
    <mxGraphModel dx="1395" dy="622" grid="1" gridSize="10" guides="1" tooltips="1" connect="1" arrows="1" fold="1" page="1" pageScale="1" pageWidth="850" pageHeight="1100" math="0" shadow="0">
      <root>
        <mxCell id="0" />
        <mxCell id="1" parent="0" />
        <mxCell id="2qaXKCH7RSahji44Bh9x-16" value="Legend" style="swimlane;fontStyle=0;childLayout=stackLayout;horizontal=1;startSize=30;horizontalStack=0;resizeParent=1;resizeParentMax=0;resizeLast=0;collapsible=1;marginBottom=0;whiteSpace=wrap;html=1;" vertex="1" parent="1">
          <mxGeometry x="560" y="100" width="143" height="90" as="geometry">
            <mxRectangle x="600" y="70" width="80" height="30" as="alternateBounds" />
          </mxGeometry>
        </mxCell>
        <mxCell id="2qaXKCH7RSahji44Bh9x-23" value="" style="endArrow=classic;html=1;rounded=0;" edge="1" parent="2qaXKCH7RSahji44Bh9x-16">
          <mxGeometry width="50" height="50" relative="1" as="geometry">
            <mxPoint x="120" y="55" as="sourcePoint" />
            <mxPoint x="90" y="35" as="targetPoint" />
          </mxGeometry>
        </mxCell>
        <mxCell id="2qaXKCH7RSahji44Bh9x-18" value="Git Commit" style="text;strokeColor=none;fillColor=none;align=left;verticalAlign=middle;spacingLeft=4;spacingRight=4;overflow=hidden;points=[[0,0.5],[1,0.5]];portConstraint=eastwest;rotatable=0;whiteSpace=wrap;html=1;" vertex="1" parent="2qaXKCH7RSahji44Bh9x-16">
          <mxGeometry y="30" width="143" height="30" as="geometry" />
        </mxCell>
        <mxCell id="2qaXKCH7RSahji44Bh9x-22" value="" style="endArrow=none;dashed=1;html=1;rounded=0;" edge="1" parent="2qaXKCH7RSahji44Bh9x-16">
          <mxGeometry width="50" height="50" relative="1" as="geometry">
            <mxPoint x="135" y="85" as="sourcePoint" />
            <mxPoint x="110" y="70" as="targetPoint" />
          </mxGeometry>
        </mxCell>
        <mxCell id="2qaXKCH7RSahji44Bh9x-21" value="Test Environment" style="text;strokeColor=none;fillColor=none;align=left;verticalAlign=middle;spacingLeft=4;spacingRight=4;overflow=hidden;points=[[0,0.5],[1,0.5]];portConstraint=eastwest;rotatable=0;whiteSpace=wrap;html=1;" vertex="1" parent="2qaXKCH7RSahji44Bh9x-16">
          <mxGeometry y="60" width="143" height="30" as="geometry" />
        </mxCell>
        <mxCell id="2qaXKCH7RSahji44Bh9x-1" value="" style="fontColor=#0066CC;verticalAlign=top;verticalLabelPosition=bottom;labelPosition=center;align=center;html=1;outlineConnect=0;fillColor=#CCCCCC;strokeColor=#6881B3;gradientColor=none;gradientDirection=north;strokeWidth=2;shape=mxgraph.networks.pc;" vertex="1" parent="1">
          <mxGeometry x="225" y="378" width="100" height="70" as="geometry" />
        </mxCell>
        <mxCell id="2qaXKCH7RSahji44Bh9x-2" value="" style="shape=image;html=1;verticalAlign=top;verticalLabelPosition=bottom;labelBackgroundColor=#ffffff;imageAspect=0;aspect=fixed;image=https://cdn1.iconfinder.com/data/icons/unicons-line-vol-3/24/docker-128.png" vertex="1" parent="1">
          <mxGeometry x="257" y="310" width="68" height="68" as="geometry" />
        </mxCell>
        <mxCell id="2qaXKCH7RSahji44Bh9x-3" value="" style="fontColor=#0066CC;verticalAlign=top;verticalLabelPosition=bottom;labelPosition=center;align=center;html=1;outlineConnect=0;fillColor=#CCCCCC;strokeColor=#6881B3;gradientColor=none;gradientDirection=north;strokeWidth=2;shape=mxgraph.networks.pc;" vertex="1" parent="1">
          <mxGeometry x="525" y="378" width="100" height="70" as="geometry" />
        </mxCell>
        <mxCell id="2qaXKCH7RSahji44Bh9x-4" value="" style="shape=image;html=1;verticalAlign=top;verticalLabelPosition=bottom;labelBackgroundColor=#ffffff;imageAspect=0;aspect=fixed;image=https://cdn1.iconfinder.com/data/icons/unicons-line-vol-3/24/docker-128.png" vertex="1" parent="1">
          <mxGeometry x="557" y="310" width="68" height="68" as="geometry" />
        </mxCell>
        <mxCell id="2qaXKCH7RSahji44Bh9x-9" value="" style="endArrow=classic;dashed=1;html=1;rounded=0;startArrow=classic" edge="1" parent="1" source="2qaXKCH7RSahji44Bh9x-2" target="2qaXKCH7RSahji44Bh9x-6">
          <mxGeometry width="50" height="50" relative="1" as="geometry">
            <mxPoint x="220" y="300" as="sourcePoint" />
            <mxPoint x="270" y="250" as="targetPoint" />
          </mxGeometry>
        </mxCell>
        <mxCell id="2qaXKCH7RSahji44Bh9x-10" value="" style="endArrow=classic;dashed=1;html=1;rounded=0;startArrow=classic" edge="1" parent="1" source="2qaXKCH7RSahji44Bh9x-4" target="2qaXKCH7RSahji44Bh9x-6">
          <mxGeometry width="50" height="50" relative="1" as="geometry">
            <mxPoint x="247" y="360" as="sourcePoint" />
            <mxPoint x="396" y="193" as="targetPoint" />
          </mxGeometry>
        </mxCell>
        <mxCell id="2qaXKCH7RSahji44Bh9x-11" value="" style="group" vertex="1" connectable="0" parent="1">
          <mxGeometry x="346" y="90" width="158.73000000000002" height="100" as="geometry" />
        </mxCell>
        <mxCell id="2qaXKCH7RSahji44Bh9x-6" value="" style="image;aspect=fixed;perimeter=ellipsePerimeter;html=1;align=center;shadow=0;dashed=0;spacingTop=3;image=img/lib/active_directory/internet_cloud.svg;movable=1;resizable=1;rotatable=1;deletable=1;editable=1;locked=0;connectable=1;" vertex="1" parent="2qaXKCH7RSahji44Bh9x-11">
          <mxGeometry width="158.73" height="100" as="geometry" />
        </mxCell>
        <mxCell id="2qaXKCH7RSahji44Bh9x-7" value="&lt;div&gt;&lt;br&gt;&lt;/div&gt;&lt;div&gt;GitLab&lt;/div&gt;" style="strokeWidth=2;html=1;shape=mxgraph.flowchart.database;whiteSpace=wrap;movable=1;resizable=1;rotatable=1;deletable=1;editable=1;locked=0;connectable=1;" vertex="1" parent="2qaXKCH7RSahji44Bh9x-11">
          <mxGeometry x="56.870000000000005" y="27.120000000000005" width="45" height="45.75" as="geometry" />
        </mxCell>
        <mxCell id="2qaXKCH7RSahji44Bh9x-12" value="" style="endArrow=classic;html=1;rounded=0;entryX=0.5;entryY=1;entryDx=0;entryDy=0;exitX=1;exitY=0.07;exitDx=0;exitDy=0;exitPerimeter=0;" edge="1" parent="1" source="2qaXKCH7RSahji44Bh9x-1" target="2qaXKCH7RSahji44Bh9x-6">
          <mxGeometry width="50" height="50" relative="1" as="geometry">
            <mxPoint x="400" y="370" as="sourcePoint" />
            <mxPoint x="450" y="320" as="targetPoint" />
          </mxGeometry>
        </mxCell>
        <mxCell id="2qaXKCH7RSahji44Bh9x-13" value="" style="endArrow=classic;html=1;rounded=0;entryX=0.586;entryY=0.987;entryDx=0;entryDy=0;exitX=0;exitY=0;exitDx=0;exitDy=0;exitPerimeter=0;entryPerimeter=0;" edge="1" parent="1" source="2qaXKCH7RSahji44Bh9x-3" target="2qaXKCH7RSahji44Bh9x-6">
          <mxGeometry width="50" height="50" relative="1" as="geometry">
            <mxPoint x="335" y="393" as="sourcePoint" />
            <mxPoint x="435" y="200" as="targetPoint" />
          </mxGeometry>
        </mxCell>
        <mxCell id="2qaXKCH7RSahji44Bh9x-14" value="Computer 1" style="text;html=1;align=center;verticalAlign=middle;resizable=0;points=[];autosize=1;strokeColor=none;fillColor=none;" vertex="1" parent="1">
          <mxGeometry x="235" y="458" width="90" height="30" as="geometry" />
        </mxCell>
        <mxCell id="2qaXKCH7RSahji44Bh9x-15" value="Computer 2" style="text;html=1;align=center;verticalAlign=middle;resizable=0;points=[];autosize=1;strokeColor=none;fillColor=none;" vertex="1" parent="1">
          <mxGeometry x="535" y="458" width="90" height="30" as="geometry" />
        </mxCell>
      </root>
    </mxGraphModel>
  </diagram>
</mxfile>
